Coordinates
version=1
nRows=30
nColumns=38
inDegrees=no

Units are S.I. units (second, meters, Newtons, ...)
If the header above contains a line with 'inDegrees', this indicates whether rotational values are in degrees (yes) or radians (no).

endheader
time	pelvis_tilt	pelvis_list	pelvis_rotation	pelvis_tx	pelvis_ty	pelvis_tz	hip_flexion_r	hip_adduction_r	hip_rotation_r	knee_angle_r	ankle_angle_r	subtalar_angle_r	mtp_angle_r	hip_flexion_l	hip_adduction_l	hip_rotation_l	knee_angle_l	ankle_angle_l	subtalar_angle_l	mtp_angle_l	lumbar_extension	lumbar_bending	lumbar_rotation	arm_flex_r	arm_add_r	arm_rot_r	elbow_flex_r	pro_sup_r	wrist_flex_r	wrist_dev_r	arm_flex_l	arm_add_l	arm_rot_l	elbow_flex_l	pro_sup_l	wrist_flex_l	wrist_dev_l
8.1325	-0.0820835	0.0254439	-3.08233	-0.141754	0.953285	0.0321705	0.319654	0.0196473	-0.154902	0.310017	-0.0596671	0	0	-0.263179	-0.0253031	-0.0367784	0.450365	0.22858	0	0	-0.242308	0.0705306	-0.161434	0.0916023	-0.271996	1.5708	0.33244	-0.000739191	0	0	0.564942	-0.34285	1.57349	0.490791	0.112794	0	0
8.1425	-0.0814175	0.0302568	-3.08036	-0.143352	0.953862	0.0304702	0.314398	0.0253418	-0.160437	0.31932	-0.0523909	0	0	-0.249315	-0.0387621	-0.0464865	0.488769	0.2022	0	0	-0.23941	0.0756571	-0.15389	0.0940516	-0.272328	1.5708	0.333939	-0.00107333	0	0	0.548817	-0.338712	1.57292	0.490153	0.121627	0	0
8.15249	-0.0807043	0.0349605	-3.07891	-0.144796	0.954495	0.0287268	0.308793	0.0313333	-0.165105	0.327726	-0.0434643	0	0	-0.233092	-0.0525	-0.056859	0.530058	0.173291	0	0	-0.236771	0.0803594	-0.145523	0.0973814	-0.272956	1.5708	0.336023	-0.0014628	0	0	0.532683	-0.334686	1.57239	0.48947	0.128295	0	0
8.16248	-0.0799892	0.0395061	-3.07781	-0.146068	0.955177	0.026959	0.302691	0.0375427	-0.168981	0.334976	-0.0333826	0	0	-0.214648	-0.0664124	-0.067381	0.573917	0.142409	0	0	-0.234434	0.0846271	-0.136546	0.101644	-0.273893	1.5708	0.338726	-0.00189021	0	0	0.516628	-0.330808	1.57192	0.488745	0.132552	0	0
8.17247	-0.0793404	0.0438564	-3.07691	-0.147161	0.955898	0.0251882	0.295939	0.0438888	-0.172182	0.340862	-0.0226015	0	0	-0.1942	-0.0803691	-0.0775093	0.619934	0.110234	0	0	-0.232466	0.0884747	-0.127176	0.106883	-0.27516	1.5708	0.342066	-0.00232362	0	0	0.50073	-0.327107	1.57153	0.487966	0.134285	0	0
8.18246	-0.0788506	0.0479876	-3.07603	-0.148067	0.956654	0.0234371	0.288378	0.0502966	-0.17484	0.345234	-0.0115111	0	0	-0.172036	-0.0942218	-0.0867399	0.667602	0.0774974	0	0	-0.230955	0.0919388	-0.117622	0.113136	-0.276779	1.5708	0.346052	-0.00271223	0	0	0.485056	-0.323594	1.57123	0.48711	0.133512	0	0
8.19245	-0.0786299	0.0518809	-3.07504	-0.148786	0.957443	0.0217288	0.279859	0.056698	-0.177078	0.34801	-0.000426086	0	0	-0.148513	-0.107803	-0.0946621	0.71633	0.0449392	0	0	-0.230014	0.0950642	-0.108065	0.120435	-0.278776	1.5708	0.350669	-0.00298213	0	0	0.469656	-0.320264	1.571	0.486127	0.130374	0	0
8.20244	-0.0787954	0.0555156	-3.07384	-0.149321	0.958265	0.0200839	0.27025	0.063029	-0.178988	0.34917	0.0104069	0	0	-0.124034	-0.120929	-0.100993	0.765459	0.0132714	0	0	-0.229764	0.0978884	-0.0986433	0.128799	-0.281174	1.5708	0.355882	-0.00303233	0	0	0.454566	-0.317096	1.57083	0.484951	0.125108	0	0
8.21243	-0.0794596	0.0588605	-3.07238	-0.149679	0.959124	0.0185205	0.259447	0.0692229	-0.180622	0.348751	0.0208038	0	0	-0.0990312	-0.133399	-0.105584	0.814285	-0.0168184	0	0	-0.230324	0.100428	-0.0894494	0.138232	-0.283991	1.57079	0.361634	-0.00273218	0	0	0.439806	-0.314054	1.57073	0.483504	0.118028	0	0
8.22242	-0.0807174	0.0618678	-3.07065	-0.14987	0.960026	0.0170528	0.247379	0.0752026	-0.181996	0.346832	0.0306363	0	0	-0.0739409	-0.145	-0.108411	0.862089	-0.0446321	0	0	-0.231799	0.102667	-0.0805249	0.14871	-0.287234	1.57079	0.367845	-0.0019208	0	0	0.425386	-0.311096	1.57066	0.481712	0.109492	0	0
8.23241	-0.0826262	0.0644711	-3.06868	-0.149904	0.960975	0.0156898	0.234031	0.08088	-0.183088	0.343524	0.0398249	0	0	-0.0491659	-0.15551	-0.10956	0.908183	-0.0694283	0	0	-0.234251	0.104552	-0.0718635	0.160183	-0.290893	1.57078	0.374419	-0.000410078	0	0	0.411301	-0.308181	1.57063	0.479513	0.0998788	0	0
8.2424	-0.0851913	0.0665917	-3.06655	-0.149797	0.961976	0.0144345	0.219446	0.0861607	-0.183839	0.338958	0.0483332	0	0	-0.0250433	-0.164715	-0.109213	0.95194	-0.0904287	0	0	-0.237683	0.105995	-0.0634144	0.172572	-0.294945	1.57077	0.381244	0.00200722	0	0	0.397536	-0.305276	1.57063	0.476869	0.0895541	0	0
8.25239	-0.0883635	0.068148	-3.06437	-0.149563	0.963028	0.0132837	0.203729	0.0909505	-0.18417	0.333272	0.0561571	0	0	-0.00182228	-0.172436	-0.107631	0.992817	-0.106912	0	0	-0.242033	0.106884	-0.0550915	0.185767	-0.299354	1.57076	0.388195	0.00554243	0	0	0.384062	-0.302356	1.57064	0.473766	0.0788564	0	0
8.26238	-0.0920488	0.0690684	-3.06224	-0.149219	0.964129	0.0122291	0.187027	0.0951646	-0.184	0.326599	0.0633111	0	0	0.020345	-0.178548	-0.10513	1.03036	-0.118392	0	0	-0.24718	0.107105	-0.0467899	0.199635	-0.304074	1.57075	0.39515	0.0103869	0	0	0.370841	-0.299408	1.57066	0.470218	0.0680801	0	0
8.27238	-0.0961168	0.0692976	-3.06031	-0.148783	0.965274	0.0112588	0.169525	0.0987315	-0.18325	0.319071	0.0698176	0	0	0.0413978	-0.182992	-0.102059	1.0642	-0.124768	0	0	-0.252956	0.106549	-0.0383963	0.214028	-0.309051	1.57073	0.40199	0.0166767	0	0	0.357824	-0.296432	1.57068	0.466265	0.0574918	0	0
8.28237	-0.100411	0.0688033	-3.05869	-0.148272	0.966452	0.0103584	0.151443	0.101596	-0.181859	0.310822	0.0757131	0	0	0.0613524	-0.185771	-0.0987694	1.09401	-0.126377	0	0	-0.259154	0.105128	-0.0298059	0.228797	-0.314229	1.57071	0.408613	0.0244444	0	0	0.344962	-0.293443	1.5707	0.46198	0.0473379	0	0
8.29236	-0.104764	0.0675796	-3.05748	-0.147701	0.967651	0.00951429	0.133021	0.103722	-0.179797	0.301997	0.081054	0	0	0.0802786	-0.186944	-0.0955827	1.11954	-0.123906	0	0	-0.265548	0.102787	-0.0209376	0.243801	-0.319555	1.5707	0.414937	0.033561	0	0	0.332202	-0.290466	1.57073	0.457457	0.0378543	0	0
8.30235	-0.109025	0.0656512	-3.05675	-0.14708	0.968857	0.00871478	0.114487	0.1051	-0.177064	0.292743	0.0859148	0	0	0.0982642	-0.186614	-0.0927625	1.1406	-0.118186	0	0	-0.271929	0.0995143	-0.0117422	0.258919	-0.324991	1.57068	0.420927	0.0437656	0	0	0.319501	-0.287533	1.57075	0.452799	0.029237	0	0
8.31234	-0.113075	0.0630688	-3.05654	-0.146419	0.970055	0.00795119	0.0960478	0.105745	-0.173688	0.283216	0.0903885	0	0	0.115391	-0.184918	-0.0905078	1.15709	-0.110026	0	0	-0.278125	0.0953432	-0.0022055	0.274057	-0.330518	1.57068	0.426596	0.0547227	0	0	0.306823	-0.284677	1.57076	0.448114	0.0216343	0	0
8.32233	-0.116835	0.0599017	-3.05686	-0.145723	0.971232	0.00721816	0.0778685	0.105691	-0.169719	0.273569	0.094578	0	0	0.131719	-0.182017	-0.0889536	1.16895	-0.100112	0	0	-0.284009	0.090343	0.00765085	0.289147	-0.336134	1.57068	0.432002	0.0660903	0	0	0.294141	-0.281931	1.57078	0.443513	0.0151379	0	0
8.33232	-0.120262	0.0562293	-3.05768	-0.144995	0.972372	0.00651356	0.0600793	0.104986	-0.165238	0.263958	0.0985878	0	0	0.14728	-0.178074	-0.0881789	1.1762	-0.0889535	0	0	-0.289505	0.0846089	0.0177756	0.304153	-0.341849	1.57071	0.437229	0.0775263	0	0	0.281442	-0.279325	1.57079	0.439098	0.00979507	0	0
8.34231	-0.12335	0.0521354	-3.05896	-0.144234	0.973461	0.00583816	0.0427752	0.103684	-0.160341	0.254538	0.102523	0	0	0.162082	-0.173253	-0.0882171	1.17889	-0.0768945	0	0	-0.294582	0.0782532	0.0280961	0.319058	-0.347674	1.57075	0.442373	0.0887082	0	0	0.268723	-0.276879	1.57079	0.434953	0.00560246	0	0
8.3523	-0.126119	0.0477039	-3.06065	-0.143441	0.974485	0.0051953	0.0260202	0.101844	-0.155142	0.245458	0.106489	0	0	0.176113	-0.16771	-0.0890654	1.17712	-0.0641504	0	0	-0.299249	0.0713979	0.0385246	0.333865	-0.353624	1.57083	0.447523	0.0993471	0	0	0.255994	-0.274603	1.5708	0.431142	0.00247864	0	0
8.36229	-0.12861	0.0430167	-3.06265	-0.142613	0.975433	0.00459007	0.00985136	0.0995311	-0.149762	0.236866	0.110582	0	0	0.189341	-0.161588	-0.0906953	1.17103	-0.0508614	0	0	-0.303551	0.0641684	0.0489682	0.348584	-0.359709	1.57095	0.452757	0.109187	0	0	0.243275	-0.272495	1.5708	0.42771	0.000286397	0	0
8.37228	-0.13088	0.038151	-3.0649	-0.14175	0.976293	0.00402852	-0.00572104	0.0968106	-0.144328	0.228898	0.114891	0	0	0.20172	-0.155019	-0.0930611	1.16073	-0.0371425	0	0	-0.307555	0.0566866	0.0593361	0.363221	-0.365935	1.57112	0.45813	0.11803	0	0	0.230596	-0.270546	1.5708	0.424679	-0.00113618	0	0
8.38227	-0.132999	0.0331774	-3.0673	-0.140852	0.977059	0.00351712	-0.0207088	0.0937513	-0.138966	0.221674	0.119495	0	0	0.213192	-0.148116	-0.0961035	1.1464	-0.0231223	0	0	-0.311347	0.0490662	0.0695426	0.37778	-0.372303	1.57134	0.463681	0.125748	0	0	0.217994	-0.268736	1.5708	0.422049	-0.00195388	0	0
8.39227	-0.13503	0.0281564	-3.06973	-0.139919	0.977723	0.00306272	-0.0351343	0.0904192	-0.133796	0.215291	0.12447	0	0	0.223703	-0.140973	-0.0997534	1.12818	-0.00897407	0	0	-0.315013	0.0414084	0.0795069	0.392253	-0.378809	1.57161	0.469433	0.13229	0	0	0.205509	-0.267038	1.5708	0.419797	-0.00232013	0	0
8.40226	-0.137028	0.023138	-3.0721	-0.138955	0.978282	0.00267265	-0.0490256	0.0868745	-0.128936	0.209811	0.129881	0	0	0.233212	-0.133662	-0.103942	1.10625	0.00506319	0	0	-0.318627	0.0338005	0.0891564	0.40662	-0.385449	1.57195	0.475396	0.137677	0	0	0.193181	-0.265418	1.5708	0.417875	-0.00236893	0	0
8.41225	-0.139032	0.0181627	-3.0743	-0.137965	0.978734	0.00235408	-0.0624184	0.0831725	-0.124486	0.205264	0.135775	0	0	0.241685	-0.126239	-0.108614	1.08076	0.0186997	0	0	-0.322241	0.0263155	0.098433	0.42084	-0.392215	1.57232	0.481566	0.142	0	0	0.181045	-0.263834	1.5708	0.416214	-0.00221115	0	0
8.42224	-0.141066	0.0132619	-3.07623	-0.136958	0.979077	0.00211301	-0.0753533	0.0793636	-0.120523	0.201641	0.142172	0	0	0.249106	-0.118749	-0.113737	1.05191	0.031669	0	0	-0.325883	0.0190099	0.107297	0.434852	-0.399092	1.57272	0.487918	0.145403	0	0	0.169127	-0.262245	1.5708	0.414735	-0.00193404	0	0
